<?xml version="1.0" encoding="UTF-8" standalone="no"?>
<svg
   xmlns:dc="http://purl.org/dc/elements/1.1/"
   xmlns:cc="http://creativecommons.org/ns#"
   xmlns:rdf="http://www.w3.org/1999/02/22-rdf-syntax-ns#"
   xmlns:svg="http://www.w3.org/2000/svg"
   xmlns="http://www.w3.org/2000/svg"
   xmlns:xlink="http://www.w3.org/1999/xlink"
   id="svg8"
   version="1.1"
   viewBox="0 0 220 297"
   height="297mm"
   width="210mm">
  <defs
     id="defs2">
    <linearGradient
       id="linearGradient106">
      <stop
         id="stop102"
         offset="0"
         style="stop-color:#c780aa;stop-opacity:1" />
      <stop
         id="stop104"
         offset="1"
         style="stop-color:#0bb87d;stop-opacity:1" />
    </linearGradient>
    <linearGradient
       gradientTransform="matrix(0.49096388,0,0,0.32562397,55.055783,124.82663)"
       gradientUnits="userSpaceOnUse"
       y2="100"
       x2="184"
       y1="351"
       x1="-34"
       id="linearGradient108"
       xlink:href="#linearGradient106" />
  </defs>
  <metadata
     id="metadata5">
    <rdf:RDF>
      <cc:Work
         rdf:about="">
        <dc:format>image/svg+xml</dc:format>
        <dc:type
           rdf:resource="http://purl.org/dc/dcmitype/StillImage" />
        <dc:title></dc:title>
      </cc:Work>
    </rdf:RDF>
  </metadata>
  <g
     id="layer1">
    <path
       id="path98"
       d="m 55.426929,124.5514 c -4.783487,-5.01099 -7.292474,-12.03268 -7.116058,-18.95804 0.176415,-6.925364 2.959861,-13.696866 7.438856,-18.981782 4.478995,-5.284917 10.592334,-9.098554 17.210029,-11.147419 6.617696,-2.048866 13.719737,-2.367589 20.561928,-1.283077 13.684386,2.169023 26.004146,9.7913 36.218266,19.152853 10.21412,9.361555 18.62017,20.483485 27.3808,31.217465 8.5115,15.50911 16.49164,31.79993 18.49247,49.37761 1.00041,8.78884 0.45198,17.81722 -2.23435,26.24505 -2.68632,8.42782 -7.57233,16.23428 -14.4024,21.8552 -2.53001,3.32822 -5.98455,5.9157 -9.81697,7.5862 -3.83242,1.6705 -8.03328,2.43817 -12.21394,2.42637 -8.36131,-0.0236 -16.47524,-3.1206 -23.63421,-7.44046 -14.317946,-8.63972 -25.406359,-22.11709 -40.296528,-29.72834 -7.4451,-3.80563 -15.922413,-6.04245 -24.204324,-4.89253 -4.140955,0.57496 -8.182815,2.00124 -11.663582,4.31692 -3.480766,2.31568 -6.385397,5.53392 -8.16156,9.31854 -1.776163,3.78462 -2.393376,8.13442 -1.554418,12.23006 0.838958,4.09564 3.163715,7.90238 6.536832,10.37224 3.373117,2.46985 7.78213,3.5368 11.878986,2.70382 4.096855,-0.83299 7.79298,-3.60571 9.580173,-7.38513 1.472966,-3.02058 1.549323,-6.67138 0.280856,-9.78338 -1.268466,-3.112 -3.843152,-5.65026 -6.941137,-6.95258 -3.097986,-1.30231 -6.678934,-1.37323 -9.855015,-0.27503 -3.176081,1.0982 -5.928253,3.34071 -7.719034,6.18441 -1.79078,2.8437 -2.622714,6.26492 -2.424744,9.61966 0.197971,3.35475 1.412626,6.6309 3.378705,9.35635 1.966079,2.72545 4.670222,4.89938 7.718072,6.31506 3.047849,1.41568 6.43114,2.07855 9.790968,2.00716 6.719654,-0.14277 13.20579,-3.24064 18.037837,-7.91241 4.832048,-4.67178 8.081118,-10.82536 9.904852,-17.29437 3.647467,-12.93803 1.761665,-26.69851 0.143006,-40.04304 -1.607894,-13.33581 -2.852441,-27.28415 1.927011,-39.83748 2.389726,-6.27666 6.322515,-12.05953 11.727961,-16.04556 5.405447,-3.98603 12.341053,-6.05492 18.975653,-5.01119 3.3173,0.52187 6.52219,1.80875 9.22732,3.7985 2.70513,1.98975 4.89991,4.68597 6.21846,7.77438 1.31854,3.08841 1.74659,6.56412 1.13037,9.86519 -0.61623,3.30107 -2.28713,6.41028 -4.75964,8.68261 -2.47252,2.27234 -5.74151,3.68171 -9.09616,3.83367 -3.35466,0.15196 -6.76626,-0.97304 -9.31805,-3.15598 -2.55178,-2.18294 -4.19998,-5.41386 -4.385484,-8.76683 -0.185504,-3.35297 1.118214,-6.7772 3.544784,-9.09853 2.52204,-2.6205 5.95912,-4.29619 9.54893,-4.88012 3.58981,-0.58393 7.31844,-0.10371 10.72528,1.16953 6.81368,2.54649 12.14304,8.10461 15.93557,14.31167 3.79253,6.20706 6.24719,13.11677 8.95427,19.86826 2.70708,6.75148 5.7568,13.49996 10.50776,19.00806 2.74007,4.99609 7.27259,8.95954 12.5394,11.13431 5.26681,2.17477 11.22882,2.57 16.76999,1.24172 5.54117,-1.32828 10.64348,-4.35516 14.56635,-8.48795 3.92288,-4.13279 6.66753,-9.34818 7.98798,-14.89123 1.32044,-5.54304 1.22789,-11.40023 -0.13179,-16.93379 -1.35968,-5.53355 -3.97387,-10.73994 -7.49021,-15.22373 -7.03266,-8.96757 -17.57694,-14.87152 -28.72385,-17.24261 -11.14691,-2.37109 -22.85233,-1.36198 -33.79273,1.82915 -10.9404,3.19114 -21.16737,8.50458 -30.73445,14.69704 -19.134158,12.38494 -35.82121,28.32052 -55.282527,40.18474 -29.526253,37.94431 -77.563546,60.5059 -125.638094,59.86714 -48.074549,-0.63875 -95.171549,-24.1753 -125.231999,-61.69782 -30.06046,-37.52252 -42.76113,-88.202287 -34.8204,-135.620795 7.94074,-47.418509 36.16711,-90.924926 75.73244,-118.240764 39.56533,-27.315841 89.872756,-38.298321 137.370391,-30.845471 47.497635,7.45284 91.760173,33.071227 122.585709,69.967792 30.82554,36.8965661 48.11654,84.673211 48.96053,132.744594 0.84398,48.071384 -14.60307,96.145924 -42.54448,135.271974 -13.355653,11.75767 -30.416247,19.75232 -48.197702,20.4128 -8.890728,0.33023 -17.874005,-1.17426 -26.07005,-4.63532 -8.196046,-3.46106 -15.585309,-8.89641 -21.121604,-15.86086 -5.536295,-6.96445 -9.1829887,-15.461 -10.1523821,-24.30489 -0.9693935,-8.84389 0.7798295,-18.00582 5.1709911,-25.74351 4.391162,-7.73768 11.438699,-13.98362 19.745111,-17.17072 8.306412,-3.1871 17.820883,-3.2375 26.067265,0.10185 10.00764,4.06343 17.433871,12.55949 26.279885,18.75726 4.423007,3.09888 9.329013,5.67098 14.644449,6.62608 5.315437,0.9551 11.093197,0.15318 15.489757,-2.98312 2.24802,-1.60433 4.07958,-3.77674 5.32822,-6.24014 1.24864,-2.46341 1.91671,-5.21238 1.99106,-7.97317 0.1487,-5.52158 -2.11578,-10.99522 -5.8347,-15.07928 -3.61142,-3.96633 -8.46804,-6.63454 -13.5404,-8.37963 -5.072356,-1.74508 -10.394689,-2.625 -15.69001,-3.48156 -5.29532,-0.85656 -10.620295,-1.70357 -15.713406,-3.38712 -5.093111,-1.68355 -9.990763,-4.25879 -13.697145,-8.13653 z"
       style="fill:url(#linearGradient108);fill-opacity:1;stroke:#000000;stroke-width:0.10579021px;stroke-linecap:butt;stroke-linejoin:miter;stroke-opacity:1" />
    <circle
       r="12"
       cy="132.58035"
       cx="113.01488"
       id="path112"
       style="fill:#000000;stroke-width:0.25644034" />
    <circle
       r="11"
       cy="131.02272"
       cx="146.59608"
       id="path114"
       style="fill:#000000;stroke-width:0.26458332" />
    <circle
       r="4"
       cy="127.58035"
       cx="108.01488"
       id="path112"
       style="fill:#ffffff;stroke-width:0.25644034" />
    <circle
       r="3.5"
       cy="126.02272"
       cx="142.09608"
       id="path114"
       style="fill:#ffffff;stroke-width:0.26458332" />
  </g>
</svg>
